# xmcd
#
# Track frame offsets: 
#        150
#        21295
#        34788
#        47839
#        72138
#        92314
#        106276
#        137694
#        154447
#        168912
#        183707
#        200968
#        224023
#        234036
#        248564
#        264666
#        281722
#        295106
#        309964
#        323022
#        339629
#
# Disc length: 4680 seconds
#
# Revision: 2
# Processed by: cddbd v1.5.2PL0 Copyright (c) Steve Scherf et al.
# Submitted via: ExactAudioCopy v0.90b4
#
DISCID=35124615
DTITLE=Various Artist - De 100 Mooiste Nederlandstalige Liedjes (Disc
DTITLE=3)
DYEAR=2008
DGENRE=Pop
TTITLE0=De Dijk - Zevende Hemel
TTITLE1=Veldhuis - Oud Geboren
TTITLE2=Jacques Brel - Mijn Vlakke Land
TTITLE3=Liesbeth List - Meisjes Van Dertig
TTITLE4=De Kast - Hart Van Mijn Gevoel
TTITLE5=Frans Mulder - Zeilen Op De Wind
TTITLE6=Marcel De Groot - De Wals
TTITLE7=Frans Halsema and Jenny Arean - Vluchten Kan Niet Meer 
TTITLE8=Arthur Umbgrove - Mooie Dag
TTITLE9=Ruth Jacott - Vrede
TTITLE10=Van Dik Hout - De Stilte Valt Zo Hard
TTITLE11=The Scene - Rigoreus
TTITLE12=Herman Van Veen - Fiets
TTITLE13=Theo Nijland - Glooiende Heuvels
TTITLE14=Jan Tekstra - Neem Me Mee
TTITLE15=Is Ook Schitterend! - Ze Speelt Met Mij
TTITLE16=Erik Mesie - Zonder Jou
TTITLE17=Raymond Van Het Groenewoud - Liefde Voor Muziek
TTITLE18=Jules De Corte - Het Feest Dat Nooit Gevierd Werd
TTITLE19=Armand - Ben Ik Te Min
TTITLE20=Klein Orkest - Mijn Vader
EXTD=
EXTT0=
EXTT1=
EXTT2=
EXTT3=
EXTT4=
EXTT5=
EXTT6=
EXTT7=
EXTT8=
EXTT9=
EXTT10=
EXTT11=
EXTT12=
EXTT13=
EXTT14=
EXTT15=
EXTT16=
EXTT17=
EXTT18=
EXTT19=
EXTT20=
PLAYORDER=
